<svg id="Layer_1" data-name="Layer 1" xmlns="http://www.w3.org/2000/svg" xmlns:xlink="http://www.w3.org/1999/xlink" viewBox="0 0 258.31 280.22"><defs><style>.cls-1{fill:#09749f;}.cls-2{fill:url(#linear-gradient);}.cls-3{fill:url(#linear-gradient-2);}.cls-4{fill:url(#linear-gradient-3);}.cls-5{fill:url(#linear-gradient-4);}.cls-6{fill:url(#linear-gradient-5);}.cls-7{fill:url(#linear-gradient-6);}.cls-8{fill:#fff;}</style><linearGradient id="linear-gradient" x1="54.71" y1="95.19" x2="97.54" y2="277.62" gradientUnits="userSpaceOnUse"><stop offset="0" stop-color="#17a1d7"/><stop offset="0.17" stop-color="#179ed3"/><stop offset="0.35" stop-color="#1695c6"/><stop offset="0.53" stop-color="#1685b0"/><stop offset="0.72" stop-color="#157092"/><stop offset="0.91" stop-color="#14556c"/><stop offset="1" stop-color="#134657"/></linearGradient><linearGradient id="linear-gradient-2" x1="193.15" y1="153.65" x2="187.21" y2="259.29" gradientUnits="userSpaceOnUse"><stop offset="0" stop-color="#0ba2d6"/><stop offset="0.2" stop-color="#0c94c2"/><stop offset="0.6" stop-color="#0f6f90"/><stop offset="1" stop-color="#134657"/></linearGradient><linearGradient id="linear-gradient-3" x1="130.46" y1="35.23" x2="151.49" y2="51.28" gradientUnits="userSpaceOnUse"><stop offset="0" stop-color="#0e9cd6"/><stop offset="0.38" stop-color="#09749f"/><stop offset="1" stop-color="#095c75"/></linearGradient><linearGradient id="linear-gradient-4" x1="271.61" y1="162.14" x2="292.61" y2="178.17" xlink:href="#linear-gradient-3"/><linearGradient id="linear-gradient-5" x1="121.71" y1="29.39" x2="112.19" y2="54.06" gradientUnits="userSpaceOnUse"><stop offset="0" stop-color="#0c8abd"/><stop offset="0.21" stop-color="#0c86b7"/><stop offset="0.48" stop-color="#0b7ca6"/><stop offset="0.8" stop-color="#0a6a8b"/><stop offset="1" stop-color="#095c75"/></linearGradient><linearGradient id="linear-gradient-6" x1="262.85" y1="156.3" x2="253.34" y2="180.95" xlink:href="#linear-gradient-5"/></defs><title>LOGO white - SAR</title><polygon class="cls-1" points="83.56 263.21 83.55 256.33 83.55 162.76 14.52 128.16 28.12 100.96 114.12 144.05 113.99 144.38 113.99 280.22 83.56 263.21"/><polygon class="cls-1" points="144.46 144.36 144.32 144.09 230.29 100.95 243.95 128.13 174.88 162.78 174.9 231.98 174.9 263.19 144.46 280.22 144.46 144.36"/><polygon class="cls-2" points="114.11 144.07 28.15 100.98 14.53 128.14 83.58 162.76 83.58 231.98 83.58 256.33 83.58 263.19 113.96 280.17 113.96 256.33 113.96 249.51 113.96 144.36 114.11 144.07"/><polygon class="cls-3" points="144.34 144.07 230.3 100.98 243.92 128.14 174.87 162.76 174.87 231.98 174.87 256.33 174.87 263.19 144.49 280.17 144.49 256.33 144.49 249.51 144.49 144.36 144.34 144.07"/><polygon class="cls-4" points="129.13 73.86 129.13 0.03 155.59 14.76 144.63 39.33 129.18 73.88 129.13 73.86"/><path class="cls-5" d="M296.72,141.69l-11,24.53L270.3,200.77V126.93Z" transform="translate(-141.15 -126.91)"/><polygon class="cls-6" points="102.71 14.8 129.14 0 129.18 73.86 129.13 73.88 102.71 14.8"/><path class="cls-7" d="M270.3,126.93v73.84l-15.45-34.55-11-24.53Z" transform="translate(-141.15 -126.91)"/><polygon class="cls-8" points="0.01 216.52 0 72.18 76.09 29.64 81.77 42.27 87.27 54.57 30.43 87.4 30.44 201.31 53.21 214.43 53.23 246.26 0.01 216.52"/><polygon class="cls-8" points="30.41 87.37 87.25 54.58 81.75 42.28 76.11 29.67 0.03 72.18 0.03 216.5 53.2 246.21 53.2 214.45 30.41 201.31 30.41 87.37"/><polygon class="cls-8" points="205.08 214.45 227.88 201.28 227.87 87.37 171.05 54.61 176.53 42.27 182.18 29.66 258.29 72.16 258.31 216.5 205.08 246.26 205.08 214.45"/><polygon class="cls-8" points="176.56 42.28 171.06 54.58 227.9 87.37 227.9 201.31 205.11 214.45 205.11 246.21 258.28 216.5 258.28 72.18 182.2 29.67 176.56 42.28"/></svg>